<svg width="155" height="22" viewBox="0 0 155 22" fill="none" xmlns="http://www.w3.org/2000/svg">
<g clip-path="url(#clip0_172_2363)">
<path d="M75.6373 21.7701C74.2278 21.7701 72.9814 21.4543 71.897 20.8215C70.8132 20.1712 69.9549 19.3037 69.3226 18.2198C68.6899 17.1179 68.374 15.889 68.374 14.5342C68.374 13.1789 68.6899 11.9594 69.3226 10.875C69.9549 9.77312 70.8132 8.90556 71.897 8.27331C72.9814 7.62301 74.2278 7.29785 75.6373 7.29785C77.0468 7.29785 78.2932 7.62301 79.3775 8.27331C80.4794 8.90556 81.3377 9.76385 81.9524 10.8482C82.5846 11.932 82.9005 13.1609 82.9005 14.5342C82.9005 15.889 82.5846 17.1179 81.9524 18.2198C81.3377 19.3037 80.4794 20.1712 79.3775 20.8215C78.2932 21.4543 77.0468 21.7701 75.6373 21.7701ZM75.6373 19.6293C76.5952 19.6293 77.4261 19.4033 78.1306 18.9517C78.8351 18.5 79.3863 17.8947 79.7837 17.136C80.1816 16.3587 80.3803 15.4916 80.3803 14.5342C80.3803 13.5764 80.1816 12.7181 79.7837 11.9594C79.3863 11.1821 78.8351 10.5679 78.1306 10.1163C77.4261 9.66474 76.5952 9.43869 75.6373 9.43869C74.6979 9.43869 73.8665 9.66474 73.1439 10.1163C72.4394 10.5679 71.8882 11.1821 71.4908 11.9594C71.0929 12.7181 70.8947 13.5764 70.8947 14.5342C70.8947 15.4916 71.0929 16.3587 71.4908 17.136C71.8882 17.8947 72.4394 18.5 73.1439 18.9517C73.8665 19.4033 74.6979 19.6293 75.6373 19.6293Z" fill="#3399FF"/>
<path d="M85.4541 21.446V11.5537C85.4541 10.3253 85.7973 9.36745 86.4842 8.68102C87.1887 7.97603 88.1554 7.62402 89.3838 7.62402H92.2296V9.76487H89.8447C89.2485 9.76487 88.7789 9.93672 88.4352 10.2799C88.11 10.6232 87.9474 11.1021 87.9474 11.7163V21.446H85.4541Z" fill="#3399FF"/>
<path d="M95.1416 21.6791V1.89453H97.6349V13.6567H101.429L105.061 7.85716H107.826L103.896 14.0361C105.196 14.4159 106.209 15.1292 106.931 16.1774C107.672 17.207 108.042 18.4086 108.042 19.7819V21.6791H105.522V19.7819C105.522 19.0232 105.35 18.3456 105.007 17.7495C104.682 17.1529 104.221 16.6832 103.624 16.34C103.028 15.9787 102.342 15.798 101.565 15.798H97.6349V21.6791H95.1416Z" fill="#3399FF"/>
<path d="M46.6588 21.3832L39.7568 1.60352H42.1979L48.2299 19.4196H47.2481L53.5886 1.60352H55.4404L61.4445 19.4196H60.5467L66.7471 1.60352H69.0481L62.0899 21.3832H60.0136L54.1779 4.24088H54.7671L48.679 21.3832H46.6588Z" fill="#3399FF"/>
<path d="M149.013 21.6798C147.441 21.6798 146.068 21.3815 144.894 20.7854C143.737 20.1713 142.834 19.3398 142.183 18.2921C141.551 17.2439 141.234 16.0697 141.234 14.7686C141.234 13.3054 141.533 12.0317 142.129 10.9473C142.725 9.86347 143.538 9.02325 144.568 8.42664C145.598 7.83053 146.763 7.53223 148.064 7.53223C149.618 7.53223 150.874 7.85787 151.832 8.50818C152.808 9.15849 153.52 10.0348 153.973 11.1372C154.425 12.2211 154.65 13.4319 154.65 14.7686C154.65 14.9493 154.641 15.1665 154.623 15.4194C154.605 15.6542 154.578 15.8349 154.542 15.9613H145.192C145.336 16.5213 145.58 16.991 145.923 17.3703C146.285 17.7502 146.728 18.0392 147.252 18.2379C147.793 18.4185 148.399 18.5089 149.067 18.5089H152.916V21.6798H149.013ZM145.165 13.468H150.937C150.901 13.1243 150.838 12.8084 150.747 12.5194C150.658 12.2123 150.53 11.9408 150.368 11.706C150.205 11.4712 150.016 11.2725 149.799 11.1099C149.582 10.9473 149.329 10.8209 149.04 10.7306C148.751 10.6402 148.434 10.5948 148.092 10.5948C147.64 10.5948 147.233 10.6764 146.872 10.8389C146.529 11.0015 146.239 11.2183 146.005 11.4892C145.77 11.7602 145.58 12.0678 145.436 12.411C145.309 12.7542 145.219 13.1067 145.165 13.468Z" fill="#33CC66"/>
<path d="M132.701 21.6791V11.0281H130.288V7.85716H132.701V5.82421C132.701 4.59585 133.044 3.63796 133.731 2.95153C134.436 2.24703 135.402 1.89453 136.63 1.89453H140.56V5.06552H137.281C137.046 5.06552 136.838 5.14656 136.657 5.30963C136.495 5.4722 136.413 5.6797 136.413 5.93259V7.85716H139.964V11.0281H136.413V21.6791H132.701Z" fill="#33CC66"/>
<path d="M124.553 21.6801V7.85809H128.292V21.6801H124.553ZM126.422 6.20449C125.79 6.20449 125.239 5.97893 124.769 5.52733C124.317 5.05717 124.092 4.50646 124.092 3.87373C124.092 3.24148 124.317 2.69956 124.769 2.24796C125.239 1.7778 125.79 1.54297 126.422 1.54297C127.054 1.54297 127.597 1.7778 128.048 2.24796C128.518 2.69956 128.753 3.24148 128.753 3.87373C128.753 4.50646 128.518 5.05717 128.048 5.52733C127.597 5.97893 127.054 6.20449 126.422 6.20449Z" fill="#33CC66"/>
<path d="M117.243 21.6797C116.123 21.6797 115.139 21.4268 114.29 20.9205C113.441 20.3967 112.781 19.7103 112.311 18.8612C111.841 17.9937 111.606 17.0451 111.606 16.0154V2.70801H115.482V16.4758C115.482 16.964 115.654 17.3883 115.997 17.7501C116.34 18.0933 116.756 18.2646 117.243 18.2646H122.257V21.6797H117.243Z" fill="#33CC66"/>
<path fill-rule="evenodd" clip-rule="evenodd" d="M29.9328 7.72108L32.6063 0L26.1423 1.56776L26.1076 1.57655L25.1709 4.28325L29.9328 7.72108Z" fill="#33CC66"/>
<path fill-rule="evenodd" clip-rule="evenodd" d="M24.7437 5.49261L29.4137 8.86402L24.7388 21.7899H19.8538L16.0644 10.948L12.1699 21.7899H7.25661L0.000976562 1.65137H6.34233L9.94475 13.0388L14.0551 1.65137H18.4258L22.0956 13.0984L24.7437 5.49261Z" fill="#3399FF"/>
</g>
<defs>
<clipPath id="clip0_172_2363">
<rect width="154.712" height="21.7905" fill="white"/>
</clipPath>
</defs>
</svg>
